<svg width="172" height="51" viewBox="0 0 172 51" fill="none" xmlns="http://www.w3.org/2000/svg">
<path d="M58.6435 25V6.09091H66.1037C67.5317 6.09091 68.7505 6.34635 69.7599 6.85724C70.7756 7.36198 71.5481 8.07907 72.0774 9.00852C72.6129 9.93182 72.8807 11.0182 72.8807 12.2678C72.8807 13.5234 72.6098 14.6037 72.0682 15.5085C71.5265 16.4072 70.7417 17.0966 69.7138 17.5767C68.692 18.0568 67.4548 18.2969 66.0021 18.2969H61.0071V15.0838H65.3558C66.1191 15.0838 66.7531 14.9792 67.2578 14.7699C67.7625 14.5606 68.138 14.2467 68.3842 13.8281C68.6366 13.4096 68.7628 12.8894 68.7628 12.2678C68.7628 11.6399 68.6366 11.1106 68.3842 10.6797C68.138 10.2488 67.7595 9.92258 67.2486 9.70099C66.7438 9.47325 66.1068 9.35938 65.3374 9.35938H62.6413V25H58.6435ZM68.8551 16.3949L73.5547 25H69.1413L64.5433 16.3949H68.8551ZM73.886 25V6.09091H86.6274V9.38707H77.8838V13.8928H85.9719V17.1889H77.8838V21.7038H86.6644V25H73.886ZM104.67 12.7109H100.626C100.552 12.1877 100.401 11.723 100.173 11.3168C99.9456 10.9044 99.6533 10.5535 99.2963 10.2642C98.9393 9.9749 98.5268 9.75331 98.059 9.59943C97.5974 9.44555 97.0957 9.36861 96.5541 9.36861C95.5754 9.36861 94.7229 9.61174 93.9965 10.098C93.2702 10.5781 92.707 11.2798 92.3069 12.2031C91.9068 13.1203 91.7068 14.2344 91.7068 15.5455C91.7068 16.8935 91.9068 18.026 92.3069 18.9432C92.7132 19.8603 93.2794 20.5528 94.0058 21.0206C94.7321 21.4884 95.5723 21.7223 96.5264 21.7223C97.0619 21.7223 97.5574 21.6515 98.0129 21.5099C98.4745 21.3684 98.8839 21.1622 99.2409 20.8913C99.5979 20.6143 99.8933 20.2789 100.127 19.8849C100.367 19.491 100.533 19.0417 100.626 18.5369L104.67 18.5554C104.565 19.4233 104.304 20.2604 103.885 21.0668C103.473 21.867 102.916 22.584 102.214 23.218C101.518 23.8459 100.687 24.3445 99.721 24.7138C98.7607 25.0769 97.6743 25.2585 96.4617 25.2585C94.7752 25.2585 93.2671 24.8769 91.9376 24.1136C90.6142 23.3504 89.5678 22.2455 88.7984 20.799C88.0351 19.3525 87.6535 17.6013 87.6535 15.5455C87.6535 13.4834 88.0413 11.7292 88.8169 10.2827C89.5924 8.83617 90.645 7.73437 91.9745 6.97727C93.3041 6.21401 94.7998 5.83239 96.4617 5.83239C97.5574 5.83239 98.573 5.98627 99.5086 6.29403C100.45 6.6018 101.284 7.05114 102.011 7.64204C102.737 8.2268 103.328 8.94389 103.783 9.79332C104.245 10.6428 104.541 11.6153 104.67 12.7109ZM105.717 25V6.09091H118.458V9.38707H109.715V13.8928H117.803V17.1889H109.715V21.7038H118.495V25H105.717ZM123.814 6.09091V25H119.817V6.09091H123.814ZM124.564 9.38707V6.09091H140.093V9.38707H134.304V25H130.353V9.38707H124.564ZM141.78 25H137.495L144.023 6.09091H149.175L155.694 25H151.41L146.673 10.4119H146.525L141.78 25ZM141.512 17.5675H151.631V20.6882H141.512V17.5675ZM165.976 11.5291C165.902 10.7843 165.585 10.2057 165.025 9.79332C164.465 9.38092 163.704 9.17471 162.744 9.17471C162.092 9.17471 161.541 9.26704 161.092 9.4517C160.642 9.63021 160.297 9.8795 160.057 10.1996C159.824 10.5196 159.707 10.8828 159.707 11.2891C159.694 11.6276 159.765 11.9231 159.919 12.1754C160.079 12.4278 160.297 12.6463 160.574 12.831C160.851 13.0095 161.172 13.1664 161.535 13.3018C161.898 13.4311 162.286 13.5419 162.698 13.6342L164.397 14.0405C165.222 14.2251 165.979 14.4714 166.668 14.7791C167.358 15.0869 167.955 15.4654 168.459 15.9148C168.964 16.3641 169.355 16.8935 169.632 17.5028C169.915 18.1122 170.06 18.8108 170.066 19.5987C170.06 20.7559 169.764 21.7592 169.18 22.6087C168.601 23.4519 167.764 24.1075 166.668 24.5753C165.579 25.0369 164.265 25.2678 162.726 25.2678C161.199 25.2678 159.87 25.0339 158.737 24.5661C157.611 24.0982 156.73 23.4058 156.096 22.4886C155.469 21.5653 155.139 20.4235 155.109 19.0632H158.977C159.02 19.6972 159.202 20.2266 159.522 20.6513C159.848 21.0698 160.282 21.3868 160.824 21.6023C161.372 21.8116 161.99 21.9162 162.68 21.9162C163.357 21.9162 163.944 21.8177 164.443 21.6207C164.948 21.4238 165.339 21.1499 165.616 20.799C165.893 20.4482 166.031 20.045 166.031 19.5895C166.031 19.1648 165.905 18.8078 165.653 18.5185C165.406 18.2292 165.043 17.983 164.563 17.7798C164.089 17.5767 163.507 17.392 162.818 17.2259L160.759 16.7088C159.165 16.321 157.906 15.7147 156.983 14.8899C156.06 14.0651 155.601 12.9541 155.607 11.5568C155.601 10.4119 155.906 9.41169 156.521 8.55611C157.143 7.70052 157.995 7.03267 159.079 6.55256C160.162 6.07244 161.393 5.83239 162.772 5.83239C164.175 5.83239 165.4 6.07244 166.447 6.55256C167.499 7.03267 168.318 7.70052 168.903 8.55611C169.487 9.41169 169.789 10.4027 169.807 11.5291H165.976Z" fill="white"/>
<path d="M63.7216 45.2955C62.3613 45.2955 61.2379 44.9938 60.3516 44.3906C59.4652 43.7812 58.8466 42.9318 58.4957 41.8423C58.1449 40.7467 58.0895 39.4725 58.3295 38.0199C58.5696 36.5672 59.0466 35.2869 59.7607 34.179C60.4747 33.0649 61.3641 32.197 62.429 31.5753C63.4938 30.9474 64.6634 30.6335 65.9375 30.6335C66.6761 30.6335 67.3871 30.7566 68.0703 31.0028C68.7536 31.2491 69.3445 31.6491 69.843 32.2031C70.3416 32.7509 70.6894 33.4773 70.8864 34.3821C71.0833 35.2869 71.071 36.401 70.8494 37.7244L70.7017 38.6477H59.7699L60.0653 36.7642H68.7812C68.9228 35.964 68.8859 35.25 68.6705 34.6222C68.4612 33.9943 68.0949 33.4988 67.5717 33.1357C67.0547 32.7725 66.3991 32.5909 65.6051 32.5909C64.7865 32.5909 64.0232 32.8125 63.3153 33.2557C62.6075 33.6927 62.0166 34.2467 61.5426 34.9176C61.0687 35.5824 60.7732 36.2595 60.6562 36.9489L60.3977 38.5739C60.2131 39.7495 60.2408 40.6851 60.4808 41.3807C60.727 42.0762 61.1548 42.5779 61.7642 42.8857C62.3736 43.1873 63.1368 43.3381 64.054 43.3381C64.6387 43.3381 65.1773 43.258 65.6697 43.098C66.1622 42.9318 66.6023 42.6856 66.9901 42.3594C67.3778 42.027 67.7041 41.6146 67.9688 41.1222L69.9631 41.7131C69.6245 42.4271 69.1475 43.0549 68.532 43.5966C67.9226 44.1321 67.2086 44.5507 66.3899 44.8523C65.5774 45.1477 64.688 45.2955 63.7216 45.2955ZM74.7839 30.8182L77.2214 36.6165L81.5793 30.8182H84.0907L78.3293 37.9091L81.7271 45H79.2157L76.7413 39.4972L72.4202 45H69.9089L75.5964 37.9091L72.2725 30.8182H74.7839ZM82.1299 50.3182L85.3984 30.8182H87.5035L87.1341 33.071H87.3927C87.5896 32.8248 87.8605 32.5109 88.2052 32.1293C88.556 31.7415 89.0269 31.3968 89.6178 31.0952C90.2149 30.7874 90.9751 30.6335 91.8984 30.6335C93.0925 30.6335 94.0927 30.9321 94.8991 31.5291C95.7054 32.1262 96.2748 32.9725 96.6072 34.0682C96.9395 35.1638 96.9826 36.4564 96.7364 37.946C96.4902 39.4479 96.0193 40.7498 95.3238 41.8516C94.6282 42.9472 93.7788 43.7966 92.7755 44.3999C91.7722 44.9969 90.6796 45.2955 89.4978 45.2955C88.5868 45.2955 87.882 45.1446 87.3834 44.843C86.8849 44.5353 86.5217 44.1875 86.2939 43.7997C86.0662 43.4058 85.8908 43.0795 85.7677 42.821H85.583L84.3273 50.3182H82.1299ZM86.3586 37.9091C86.1862 38.9801 86.1862 39.925 86.3586 40.7436C86.5371 41.5561 86.891 42.1932 87.4204 42.6548C87.9559 43.1103 88.6607 43.3381 89.5347 43.3381C90.4457 43.3381 91.2428 43.098 91.9261 42.6179C92.6154 42.1316 93.1817 41.4792 93.6249 40.6605C94.0743 39.8357 94.3851 38.9186 94.5574 37.9091C94.7175 36.9119 94.7113 36.0133 94.539 35.2131C94.3666 34.4067 94.0158 33.7696 93.4864 33.3018C92.9571 32.8279 92.2307 32.5909 91.3074 32.5909C90.4211 32.5909 89.6363 32.8156 88.953 33.2649C88.276 33.7081 87.7158 34.3298 87.2726 35.13C86.8356 35.924 86.5309 36.8504 86.3586 37.9091ZM97.0654 45L99.429 30.8182H101.534L101.165 32.9602H101.313C101.682 32.2585 102.245 31.6892 103.002 31.2521C103.759 30.8151 104.563 30.5966 105.412 30.5966C105.578 30.5966 105.778 30.5997 106.012 30.6058C106.246 30.6058 106.428 30.6151 106.557 30.6335L106.188 32.8494C106.114 32.831 105.947 32.8033 105.689 32.7663C105.43 32.7232 105.153 32.7017 104.858 32.7017C104.169 32.7017 103.532 32.8464 102.947 33.1357C102.362 33.4188 101.873 33.8127 101.479 34.3175C101.085 34.8161 100.832 35.3854 100.722 36.0256L99.2444 45H97.0654ZM110.447 45.2955C109.087 45.2955 107.964 44.9938 107.077 44.3906C106.191 43.7812 105.572 42.9318 105.222 41.8423C104.871 40.7467 104.815 39.4725 105.055 38.0199C105.295 36.5672 105.772 35.2869 106.487 34.179C107.201 33.0649 108.09 32.197 109.155 31.5753C110.22 30.9474 111.389 30.6335 112.663 30.6335C113.402 30.6335 114.113 30.7566 114.796 31.0028C115.479 31.2491 116.07 31.6491 116.569 32.2031C117.067 32.7509 117.415 33.4773 117.612 34.3821C117.809 35.2869 117.797 36.401 117.575 37.7244L117.428 38.6477H106.496L106.791 36.7642H115.507C115.649 35.964 115.612 35.25 115.396 34.6222C115.187 33.9943 114.821 33.4988 114.298 33.1357C113.781 32.7725 113.125 32.5909 112.331 32.5909C111.512 32.5909 110.749 32.8125 110.041 33.2557C109.333 33.6927 108.742 34.2467 108.268 34.9176C107.795 35.5824 107.499 36.2595 107.382 36.9489L107.124 38.5739C106.939 39.7495 106.967 40.6851 107.207 41.3807C107.453 42.0762 107.881 42.5779 108.49 42.8857C109.099 43.1873 109.863 43.3381 110.78 43.3381C111.365 43.3381 111.903 43.258 112.396 43.098C112.888 42.9318 113.328 42.6856 113.716 42.3594C114.104 42.027 114.43 41.6146 114.695 41.1222L116.689 41.7131C116.35 42.4271 115.873 43.0549 115.258 43.5966C114.648 44.1321 113.934 44.5507 113.116 44.8523C112.303 45.1477 111.414 45.2955 110.447 45.2955ZM129.794 33.9943L127.726 34.5483C127.652 34.2159 127.523 33.8958 127.338 33.5881C127.16 33.2741 126.883 33.0187 126.507 32.8217C126.138 32.6186 125.633 32.517 124.993 32.517C124.125 32.517 123.371 32.7171 122.731 33.1172C122.091 33.5111 121.724 34.0128 121.632 34.6222C121.54 35.1577 121.663 35.5855 122.001 35.9055C122.34 36.2256 122.906 36.4872 123.7 36.6903L125.732 37.2074C126.95 37.5213 127.818 37.9922 128.335 38.62C128.858 39.2417 129.037 40.0511 128.871 41.0483C128.735 41.8608 128.381 42.5871 127.809 43.2273C127.236 43.8674 126.504 44.3722 125.611 44.7415C124.719 45.1108 123.725 45.2955 122.629 45.2955C121.17 45.2955 120.019 44.9815 119.176 44.3537C118.333 43.7197 117.883 42.8026 117.828 41.6023L120.007 41.0852C120.062 41.8423 120.333 42.4148 120.82 42.8026C121.312 43.1842 122.001 43.375 122.888 43.375C123.903 43.375 124.75 43.1596 125.427 42.7287C126.104 42.2917 126.489 41.7685 126.581 41.1591C126.673 40.6605 126.575 40.245 126.285 39.9126C126.002 39.5803 125.51 39.331 124.808 39.1648L122.555 38.6108C121.3 38.2969 120.419 37.8168 119.915 37.1705C119.416 36.5241 119.25 35.7116 119.416 34.733C119.552 33.9328 119.896 33.2249 120.45 32.6094C121.01 31.9938 121.712 31.5107 122.555 31.1598C123.405 30.8089 124.328 30.6335 125.325 30.6335C126.729 30.6335 127.778 30.9413 128.474 31.5568C129.169 32.1662 129.609 32.9787 129.794 33.9943ZM141.558 33.9943L139.49 34.5483C139.416 34.2159 139.287 33.8958 139.102 33.5881C138.924 33.2741 138.647 33.0187 138.271 32.8217C137.902 32.6186 137.397 32.517 136.757 32.517C135.889 32.517 135.135 32.7171 134.495 33.1172C133.855 33.5111 133.488 34.0128 133.396 34.6222C133.304 35.1577 133.427 35.5855 133.765 35.9055C134.104 36.2256 134.67 36.4872 135.464 36.6903L137.495 37.2074C138.714 37.5213 139.582 37.9922 140.099 38.62C140.622 39.2417 140.801 40.0511 140.635 41.0483C140.499 41.8608 140.145 42.5871 139.573 43.2273C139 43.8674 138.268 44.3722 137.375 44.7415C136.483 45.1108 135.489 45.2955 134.393 45.2955C132.934 45.2955 131.783 44.9815 130.94 44.3537C130.097 43.7197 129.647 42.8026 129.592 41.6023L131.771 41.0852C131.826 41.8423 132.097 42.4148 132.584 42.8026C133.076 43.1842 133.765 43.375 134.652 43.375C135.667 43.375 136.514 43.1596 137.191 42.7287C137.868 42.2917 138.253 41.7685 138.345 41.1591C138.437 40.6605 138.339 40.245 138.049 39.9126C137.766 39.5803 137.274 39.331 136.572 39.1648L134.319 38.6108C133.064 38.2969 132.183 37.8168 131.679 37.1705C131.18 36.5241 131.014 35.7116 131.18 34.733C131.316 33.9328 131.66 33.2249 132.214 32.6094C132.774 31.9938 133.476 31.5107 134.319 31.1598C135.169 30.8089 136.092 30.6335 137.089 30.6335C138.493 30.6335 139.542 30.9413 140.238 31.5568C140.933 32.1662 141.373 32.9787 141.558 33.9943Z" fill="white"/>
<path fill-rule="evenodd" clip-rule="evenodd" d="M26.1824 4.39355C23.7918 5.23239 22.0035 6.72705 21.0183 8.70917C20.7574 9.23444 20.5205 9.69189 20.492 9.72547C20.4637 9.75927 19.9129 9.50909 19.2682 9.16951C18.3494 8.68559 17.7265 8.53526 16.3841 8.47299C14.8814 8.40339 14.5257 8.46632 13.477 8.98693C12.0185 9.71124 10.8931 10.9993 10.2778 12.6489C9.89913 13.6637 9.83712 14.1934 9.93638 15.5575C10.1084 17.9208 10.4621 18.8446 11.6651 20.0726L12.7114 21.1405L12.0553 21.9689C11.3348 22.8789 11.0226 24.336 11.266 25.6527C11.5697 27.2953 13.182 28.4917 15.5137 28.8048C16.5988 28.9507 16.7042 29.0205 17.1258 29.8758C17.3741 30.3791 17.872 31.1061 18.2324 31.4912L18.8878 32.1917L18.6595 34.4934C18.5337 35.7595 18.3669 37.1073 18.2885 37.4887C18.0565 38.6176 18.6693 39.4818 20.5742 40.7124L22.2717 41.809L22.7832 43.6386C23.6991 46.9161 24.0815 47.7894 24.6665 47.9384C25.3283 48.107 25.8244 47.9251 26.0049 47.4476C26.12 47.1432 25.6024 44.3469 25.2604 43.424C25.1856 43.2225 25.3618 43.2147 25.994 43.392C26.4515 43.5201 27.8158 43.5859 29.0256 43.5381C31.0297 43.4587 31.3761 43.3768 32.9233 42.6167L34.6215 41.7823V40.1342C34.6215 37.7712 35.4619 31.6273 35.85 31.1521C35.8876 31.1063 36.1793 31.3834 36.4981 31.7681C37.9211 33.4845 40.5278 34.2172 42.6268 33.4914C44.8305 32.7295 46.0442 31.1748 46.4759 28.5609C46.8292 26.4224 46.5171 25.3165 45.2109 24.0762L44.2288 23.1438L45.3194 22.5829C46.747 21.8486 47.6504 20.7015 48.1995 18.9258C48.7417 17.1732 48.7537 16.0283 48.2456 14.5366C47.0209 10.941 43.3317 9.52532 37.7701 10.5163L36.2078 10.7947L36.1024 9.30116C35.9234 6.76196 34.705 5.25263 32.1174 4.3642C30.6675 3.8665 27.6418 3.8814 26.1824 4.39355ZM27.4003 4.67131C25.8903 4.9871 24.2042 5.92446 22.9935 7.12111C21.8951 8.20702 20.9053 9.99878 21.1077 10.5347C21.1665 10.6897 21.1325 10.9513 21.0322 11.1158C20.8924 11.3455 20.6971 11.2493 20.1931 10.7017C18.736 9.11858 16.0171 8.58085 14.0239 9.48173C12.5836 10.1329 11.7119 10.9726 11.0491 12.3476C10.5254 13.4342 10.4728 13.7529 10.5618 15.31C10.6398 16.6804 10.7868 17.2726 11.2467 18.0689C11.9037 19.2067 13.2655 20.45 13.8548 20.45C14.4115 20.45 14.3344 21.0925 13.75 21.3215C12.7493 21.7138 11.8327 23.1028 11.8327 24.227C11.8327 25.7301 13.0799 27.1082 14.9506 27.672C16.4904 28.1361 16.5855 28.115 16.7413 27.2717C16.9098 26.3603 17.8634 25.3972 18.782 25.2106C19.4367 25.0779 19.479 25.0047 19.6504 23.7124L19.8307 22.3538L21.0359 21.7387C26.088 19.1602 32.2986 20.4296 37.5278 25.1097C37.6198 25.1922 37.3354 26.277 36.8961 27.5205L36.0969 29.7815L36.7032 30.5881C38.0061 32.3221 40.9869 32.9788 43.0615 31.9889C45.9673 30.6028 46.9799 26.4706 44.8917 24.5199C44.6037 24.251 43.7947 23.7736 43.0937 23.4589C42.3489 23.1246 41.8564 22.7733 41.9087 22.6136C41.9578 22.4633 42.485 22.2789 43.0804 22.204C47.3382 21.6678 49.406 16.8714 46.9177 13.303C46.2419 12.334 45.2668 11.6238 44.0079 11.1834C42.1474 10.5329 36.9335 10.9306 36.0301 11.7921C35.7798 12.0307 35.5149 12.1648 35.4415 12.0903C35.3681 12.0158 35.3622 11.2893 35.4284 10.476C35.5868 8.5277 35.2412 7.30725 34.2569 6.33698C32.8583 4.95819 29.6985 4.19074 27.4003 4.67131ZM27.4194 6.0123C26.2725 6.24091 24.7334 6.96833 24.2504 7.50984C23.7657 8.05335 23.1712 9.55312 23.4403 9.55312C23.5608 9.55312 23.7982 9.21598 23.9678 8.80413C24.1374 8.39205 24.6111 7.79583 25.0202 7.47915C25.8706 6.82089 27.9172 6.21734 29.299 6.21734C29.8162 6.21734 30.2391 6.11726 30.2391 5.99495C30.2391 5.73276 28.7751 5.74188 27.4194 6.0123ZM4.82072 6.45151C4.82072 6.77664 7.2015 9.77551 7.45963 9.77551C7.8821 9.77551 7.64413 9.26824 6.51893 7.77181C5.461 6.36478 4.82072 5.86708 4.82072 6.45151ZM14.5213 10.8948C13.2912 11.813 12.4885 13.4787 12.4949 15.1007C12.5006 16.558 13.156 18.2262 13.7226 18.2262C14.0548 18.2262 14.0443 18.1657 13.6369 17.7258C13.0696 17.1127 12.6656 15.4025 12.8525 14.4053C13.1321 12.9143 14.041 11.5702 15.1743 10.9717C15.5059 10.7967 15.7769 10.5561 15.7769 10.4369C15.7769 10.0755 15.4679 10.1883 14.5213 10.8948ZM37.3058 12.3165C36.9142 12.4971 36.5937 12.7499 36.5937 12.8782C36.5937 13.1953 36.8402 13.1602 37.3477 12.7706C37.8449 12.389 39.4151 12.3463 40.6058 12.6819C41.6541 12.9774 42.1846 12.8091 41.3121 12.4577C40.2285 12.0216 38.1069 11.9467 37.3058 12.3165ZM0 12.4134C0 12.5682 0.416992 12.6665 1.07239 12.6665C1.66227 12.6665 3.14421 12.7706 4.36604 12.8978C6.61293 13.1317 7.42172 13.0281 6.67144 12.602C6.07981 12.266 0 12.0941 0 12.4134ZM4.43726 16.3848C2.63452 17.1763 2.04486 17.7333 3.27393 17.4838C4.35815 17.2637 6.83622 16.0312 6.687 15.7861C6.50009 15.479 6.50162 15.4786 4.43726 16.3848ZM24.4251 21.2092C23.5775 21.3709 22.3322 21.7681 21.658 22.0919C20.6445 22.5785 20.4083 22.8004 20.2957 23.3722C20.0419 24.66 20.1324 25.3038 20.588 25.4506C21.2145 25.6525 22.0813 26.7889 22.3798 27.7996C22.5829 28.4881 22.5787 29.0078 22.3605 30.182C22.1043 31.5593 22.121 31.8219 22.5588 33.3499C22.8215 34.2664 23.0807 35.175 23.1351 35.369C23.2166 35.6598 23.6253 35.7241 25.4764 35.737C29.0994 35.7619 31.453 36.5781 33.0857 38.3756L33.9423 39.3187L34.0518 38.3907C34.1121 37.8801 34.2749 36.5118 34.4138 35.3498C34.6925 33.0192 35.6501 28.9869 36.3574 27.1656C36.6079 26.5207 36.8097 25.8217 36.8062 25.6122C36.7909 24.7329 32.1511 21.9313 29.8008 21.3822C28.0463 20.9724 26.0091 20.9068 24.4251 21.2092ZM13.6074 22.8075C13.3606 23.1257 13.1005 23.7022 13.0291 24.0887C12.8878 24.8526 13.22 26.0096 13.5802 26.0096C13.8681 26.0096 13.8718 25.6331 13.5857 25.4537C13.1799 25.1991 13.3584 23.8598 13.9078 23.0386C14.5251 22.1152 14.2862 21.9318 13.6074 22.8075ZM42.0718 24.2065C42.0718 24.342 42.2556 24.4529 42.4802 24.4529C42.7048 24.4529 43.1498 24.7183 43.4695 25.0427C44.199 25.783 44.4626 25.5953 43.7811 24.8206C43.2392 24.2045 42.0718 23.7851 42.0718 24.2065ZM4.76879 25.9129C3.99002 26.3417 3.50598 27.315 3.50598 28.4519C3.50598 30.3248 4.59502 31.7456 6.53602 32.4052C7.54355 32.7475 8.32626 33.4369 13.2883 38.352C16.3753 41.4098 19.1282 44.0362 19.4054 44.1885C20.4252 44.7487 21.0896 43.869 20.5082 42.7281C20.3261 42.3708 18.381 40.1901 16.1856 37.8821C10.3301 31.727 9.57615 30.7827 9.25469 29.2027C8.68322 26.3953 6.62871 24.8886 4.76879 25.9129ZM17.9513 26.4373C17.2069 27.1927 17.1087 28.2006 17.6506 29.5193C18.0245 30.4291 19.2152 31.7917 19.6363 31.7917C20.0297 31.7917 20.1749 32.2349 23.0244 42.1326C23.764 44.7011 24.4693 46.9279 24.5918 47.0807C24.8876 47.4498 25.4184 47.436 25.4184 47.0591C25.4184 46.6601 23.0089 37.2559 22.0612 33.9557C21.3687 31.5446 21.3324 31.2733 21.6012 30.5087C22.1893 28.8368 21.8374 27.1741 20.7041 26.2694C19.8235 25.5662 18.7447 25.632 17.9513 26.4373ZM4.7013 26.778C4.06628 27.4222 3.96176 28.972 4.48415 29.9972C4.9671 30.9448 6.07236 31.7917 6.82658 31.7917C7.52821 31.7917 7.98443 32.2086 16.1514 40.3133C19.4994 43.6359 20.5961 44.4132 19.8388 42.9267C19.6633 42.5823 18.0611 40.7616 16.2783 38.8809C9.61866 31.855 8.76495 30.8134 8.76495 29.7159C8.76495 28.7225 7.92768 27.1394 7.14628 26.6559C6.20953 26.0761 5.35034 26.1191 4.7013 26.778ZM33.8649 27.1016C33.3546 28.103 31.5521 35.1025 31.5689 36.017C31.5891 37.0938 31.767 36.5772 32.6418 32.9036C33.0349 31.2524 33.5954 29.1628 33.8875 28.2602C34.453 26.5118 34.4425 25.9678 33.8649 27.1016ZM18.287 27.6664C18.1036 28.9084 18.6941 30.3086 19.4472 30.4173C19.7183 30.4562 19.9403 30.4222 19.9403 30.3417C19.9403 30.261 19.7183 30.0126 19.4472 29.7895C19.0318 29.4477 18.9555 29.1711 18.9619 28.0302C18.9711 26.4019 18.5105 26.1535 18.287 27.6664ZM5.08367 27.166C4.74052 27.5143 4.75981 28.8722 5.1172 29.5256C5.47897 30.1872 6.54457 30.8988 7.1763 30.9006C7.92855 30.9028 7.7664 30.5863 6.79174 30.15C5.68999 29.6568 5.3911 29.1035 5.55807 27.8666C5.69086 26.8836 5.55698 26.6857 5.08367 27.166ZM34.4138 29.4557C33.392 32.6932 32.5138 37.1289 32.8946 37.1289C33.1021 37.1289 33.1503 36.9366 33.6443 34.1347C33.9271 32.5311 34.8514 29.178 35.4395 27.6228C35.4974 27.4696 35.4404 27.344 35.3127 27.344C35.1849 27.344 34.7804 28.2942 34.4138 29.4557ZM31.6754 28.2813C31.4057 28.9362 30.2391 35.1991 30.2391 35.9916C30.2391 36.128 30.325 36.2394 30.4297 36.2394C30.5347 36.2394 30.8371 34.8343 31.1015 33.1171C31.3662 31.3996 31.7309 29.4884 31.9119 28.8697C32.2988 27.5474 32.1402 27.1525 31.6754 28.2813ZM29.7173 29.4902C29.2399 31.8559 28.9493 35.2269 29.2006 35.4822C29.3922 35.6765 29.5328 34.9028 29.6897 32.7924C29.7623 31.8139 29.9108 30.613 30.0197 30.124C30.1284 29.6348 30.1337 29.1495 30.0313 29.0457C29.929 28.9418 29.7877 29.1417 29.7173 29.4902ZM28.0338 30.8156C27.6677 31.7739 27.4867 34.9051 27.7974 34.9051C27.9514 34.9051 28.0478 34.4816 28.0478 33.804C28.0478 33.1985 28.1561 32.1908 28.2884 31.5648C28.5588 30.2846 28.4072 29.8382 28.0338 30.8156ZM19.4181 33.6037C19.138 35.465 19.0736 36.9065 19.2706 36.9065C19.5829 36.9065 20.5976 36.4111 20.5976 36.2585C20.5976 36.0117 19.7356 33.0666 19.6328 32.9621C19.5763 32.9049 19.4799 33.1936 19.4181 33.6037ZM25.6375 34.0155C25.6375 34.2601 25.7361 34.4603 25.8566 34.4603C25.9771 34.4603 26.0757 34.2601 26.0757 34.0155C26.0757 33.7709 25.9771 33.5708 25.8566 33.5708C25.7361 33.5708 25.6375 33.7709 25.6375 34.0155ZM48.1524 33.7364C46.587 33.7969 46.2351 33.8745 46.2351 34.1596C46.2351 34.4659 46.539 34.4892 48.7002 34.3487C50.0562 34.2604 51.2 34.1561 51.2421 34.1167C51.4507 33.9221 50.9721 33.5763 50.5499 33.6166C50.2858 33.6417 49.2071 33.6955 48.1524 33.7364ZM45.0323 35.5684C44.8711 35.8331 45.4101 36.1073 49.3589 37.7694C52.7435 39.194 53.1226 39.3076 52.9732 38.8524C52.923 38.6996 51.5589 38.0182 49.942 37.3386C45.3891 35.4246 45.1682 35.3449 45.0323 35.5684ZM23.7285 36.4175C23.5768 36.5154 23.5181 36.8042 23.592 37.0902C23.7142 37.5652 23.7425 37.5717 24.1314 37.2145C24.8423 36.5618 24.5132 35.9114 23.7285 36.4175ZM24.683 37.2437C24.1926 37.8953 23.9673 38.4027 24.0409 38.6892C24.1036 38.9318 24.1871 39.1304 24.2268 39.1304C24.3755 39.1304 26.2948 36.6348 26.2948 36.4413C26.2948 35.8776 25.3609 36.3426 24.683 37.2437ZM25.7974 37.9629C24.2896 39.8916 24.2899 39.8912 24.4989 40.4643C24.6663 40.9239 24.7167 40.8983 25.4455 39.9843C26.1323 39.1233 27.259 37.4981 27.6948 36.7397C27.8007 36.5556 27.7053 36.4618 27.4128 36.4618C27.1293 36.4618 26.5503 36.9997 25.7974 37.9629ZM27.3624 38.0741C26.856 38.8386 26.0562 39.937 25.5851 40.5152C24.7737 41.511 24.6698 42.0214 25.2788 42.0214C25.5327 42.0214 28.82 37.6633 29.0753 36.9884C29.1498 36.7913 29.0306 36.6841 28.7368 36.6841C28.4247 36.6841 27.9959 37.1178 27.3624 38.0741ZM27.9126 39.4927C26.6281 41.2544 26.1057 42.1408 26.2596 42.2969C26.3834 42.4226 26.6325 42.4677 26.8133 42.3972C27.1402 42.2698 30.4582 37.6729 30.4582 37.3473C30.4582 37.2532 30.3081 37.118 30.1245 37.0466C29.8867 36.9539 29.2508 37.6575 27.9126 39.4927ZM19.951 37.8317C19.5682 38.4703 19.5515 38.6089 19.8248 38.886C20.0978 39.1633 20.1977 39.1344 20.5851 38.6674C21.0613 38.0934 21.0992 37.3326 20.659 37.1856C20.512 37.1365 20.1933 37.4271 19.951 37.8317ZM19.1733 37.7961C19.0988 37.9184 19.1424 38.0185 19.27 38.0185C19.3975 38.0185 19.502 37.9184 19.502 37.7961C19.502 37.6738 19.4586 37.5737 19.4054 37.5737C19.3521 37.5737 19.2478 37.6738 19.1733 37.7961ZM29.4338 39.7302C27.4157 42.6403 27.5 42.4662 28.1072 42.4662C28.4821 42.4662 28.9296 42.0794 29.7154 41.0763C31.6437 38.6151 31.8459 38.2644 31.5475 37.8995C31.4009 37.7202 31.2019 37.5737 31.105 37.5737C31.0084 37.5737 30.2562 38.5442 29.4338 39.7302ZM43.1674 37.8196C43.1674 38.0847 47.3132 43.5467 47.8706 44.0162C48.15 44.2515 48.2072 44.2379 48.2072 43.9366C48.2072 43.5301 43.674 37.5737 43.3648 37.5737C43.2561 37.5737 43.1674 37.6844 43.1674 37.8196ZM31.7087 39.1124C31.501 39.4693 30.8776 40.3262 30.3237 41.0164C29.2736 42.3245 29.2197 42.6103 30.0644 42.3861C30.6423 42.2327 32.7719 39.0668 32.5464 38.6965C32.317 38.3196 32.1104 38.4223 31.7087 39.1124ZM40.418 39.0748C40.6255 39.9403 42.0542 42.8416 42.4276 43.1562C43.1021 43.7242 42.936 43.0728 41.8312 40.8172C40.7202 38.5491 40.1119 37.799 40.418 39.0748ZM20.8606 38.9525C20.496 39.3225 20.5321 39.7244 20.9443 39.8849C21.4616 40.0864 21.4741 40.074 21.4741 39.3528C21.4741 38.642 21.2868 38.5199 20.8606 38.9525ZM32.1139 40.6012C31.6678 41.2831 31.3693 41.9064 31.4506 41.9867C31.6277 42.1617 33.3053 40.2448 33.3061 39.8663C33.3077 39.1889 32.8554 39.4677 32.1139 40.6012ZM33.1 41.0075C32.6992 41.4403 32.6545 41.5766 32.913 41.5766C33.3235 41.5766 33.8176 41.0191 33.7067 40.6813C33.6627 40.5476 33.3896 40.6944 33.1 41.0075Z" fill="white"/>
</svg>
