<svg width="14" height="14" viewBox="0 0 14 14" fill="none" xmlns="http://www.w3.org/2000/svg">
<path d="M13.918 13.5222L10.2328 9.83696C11.2656 8.70075 11.8132 7.20564 11.7583 5.67111C11.7035 4.13657 11.0507 2.68434 9.93942 1.62472C8.82811 0.5651 7.34645 -0.0178577 5.81105 0.000417041C4.27565 0.0186918 2.80829 0.636749 1.72252 1.72252C0.636749 2.80829 0.0186918 4.27565 0.000417041 5.81105C-0.0178577 7.34645 0.5651 8.82811 1.62472 9.93942C2.68434 11.0507 4.13657 11.7035 5.67111 11.7583C7.20564 11.8132 8.70075 11.2656 9.83696 10.2328L13.5222 13.918C13.5747 13.9705 13.6459 14 13.7201 14C13.7944 14 13.8655 13.9705 13.918 13.918C13.9705 13.8655 14 13.7944 14 13.7201C14 13.6459 13.9705 13.5747 13.918 13.5222ZM0.573441 5.88806C0.573441 4.83693 0.885138 3.8094 1.46912 2.93542C2.05309 2.06143 2.88312 1.38024 3.85424 0.977992C4.82536 0.575741 5.89395 0.470494 6.92489 0.67556C7.95582 0.880626 8.9028 1.38679 9.64606 2.13006C10.3893 2.87332 10.8955 3.82029 11.1006 4.85123C11.3056 5.88216 11.2004 6.95076 10.7981 7.92188C10.3959 8.89299 9.71469 9.72303 8.8407 10.307C7.96672 10.891 6.93919 11.2027 5.88806 11.2027C4.47899 11.2012 3.12806 10.6408 2.13169 9.64443C1.13533 8.64806 0.574922 7.29713 0.573441 5.88806Z" fill="white"/>
</svg>
